<svg width="259" height="249" viewBox="0 0 259 249" fill="none" xmlns="http://www.w3.org/2000/svg">
<g clip-path="url(#clip0_9_2)">
<path d="M120.675 246.989L8.82483 192.22C6.14314 190.902 3.9166 189.01 2.36792 186.733C0.81924 184.457 0.00272147 181.875 3.84215e-05 179.247V69.7529C-0.00643713 67.1173 0.805737 64.5266 2.35487 62.2415C3.90401 59.9565 6.13548 58.0576 8.82483 56.7358L120.675 2.01089C123.366 0.693533 126.419 0 129.526 0C132.633 0 135.686 0.693533 138.377 2.01089L250.175 56.7801C252.865 58.1018 255.096 60.0007 256.645 62.2858C258.194 64.5709 259.006 67.1615 259 69.7972V179.247C259.006 181.883 258.194 184.473 256.645 186.759C255.096 189.044 252.865 190.942 250.175 192.264L138.377 246.989C135.686 248.307 132.633 249 129.526 249C126.419 249 123.366 248.307 120.675 246.989Z" fill="black"/>
<path d="M93.8577 73.4468C107.276 73.4468 116.269 77.104 120.836 84.4179C123.993 89.9634 125.572 95.389 125.572 100.696H125.402C116.212 101.365 109.926 101.7 106.543 101.7C106.543 97.9229 105.162 94.7439 102.399 92.1626C99.8058 90.9197 97.4097 90.2982 95.2108 90.2982H91.8279C86.0771 90.2982 82.5816 92.1865 81.3415 95.9631C81.0596 97.0627 80.9186 97.9231 80.9186 98.5446V100.05C80.9186 105.405 84.245 109.277 90.8976 111.667C91.4614 112.097 96.0846 113.89 104.768 117.045C109.391 118.862 113.675 121.109 117.623 123.786V123.929H96.395V125.937H124.388V128.805H127.94V159.927H121.005V175.918H67.2182V159.927H54.533V149.171H61.7215V145.442H54.533V142.932H79.1431V159.928H104.346V134.328H85.4866V125.938H62.0603V123.93H73.3928V123.787C63.4701 118.193 58.5079 110.281 58.5079 100.051V98.6887C58.5079 90.132 61.6089 83.6298 67.8106 79.1837C73.4486 75.3593 82.1308 73.447 93.8583 73.447L93.8577 73.4468ZM124.388 123.929H132.93V125.937H124.388V123.929ZM46.4128 145.441H54.5316V149.17H46.4128V145.441ZM100.623 145.441L103.16 145.441C103.442 145.489 103.583 145.609 103.583 145.8V146.302H101.384V146.947H103.329V147.449C103.329 147.688 103.216 147.808 102.991 147.808H101.384V148.525H103.583V149.027C103.583 149.218 103.442 149.314 103.16 149.314H100.623C100.341 149.314 100.2 149.218 100.2 149.027V145.8C100.256 145.561 100.397 145.441 100.623 145.441L100.623 145.441ZM99.608 150.533L100.369 150.533C100.482 150.533 100.961 150.963 101.807 151.824C102.201 150.963 102.511 150.533 102.737 150.533H103.329C103.611 150.533 103.752 150.629 103.752 150.82C102.568 151.967 101.976 153.162 101.976 154.405H101.384C101.102 154.405 100.905 153.736 100.792 152.397C100.003 151.489 99.6079 150.868 99.6079 150.533L99.608 150.533ZM99.0156 155.553L99.7767 155.553C100.115 155.553 100.453 156.294 100.792 157.775H101.214C101.553 156.293 101.863 155.553 102.145 155.553H102.99C103.216 155.6 103.329 155.72 103.329 155.911V159.066C103.329 159.305 103.216 159.425 102.99 159.425H102.398V157.274H102.145L101.384 159.425H100.792C100.51 159.425 100.171 158.708 99.7766 157.274H99.6075V159.425H99.0155C98.7336 159.425 98.5927 159.305 98.5927 159.066V155.911C98.6491 155.672 98.79 155.553 99.0156 155.553H99.0156ZM122.187 160.787H124.217C125.288 160.787 125.824 161.242 125.824 162.15C125.542 162.15 125.401 162.245 125.401 162.437C125.796 162.867 125.993 163.273 125.993 163.656C125.655 164.325 124.922 164.66 123.794 164.66H122.61C122.328 164.66 122.187 164.54 122.187 164.301V160.787L122.187 160.787ZM123.372 161.647V162.293H124.218C124.443 162.293 124.556 162.173 124.556 161.934V161.647H123.372H123.372ZM123.372 162.938V163.799H124.387C124.669 163.799 124.81 163.679 124.81 163.44V163.297C124.81 163.058 124.669 162.938 124.387 162.938H123.372V162.938ZM122.187 165.806H123.033C123.315 165.806 123.907 166.595 124.809 168.173H124.978V165.806H125.993V169.32C125.993 169.559 125.852 169.679 125.57 169.679H125.147C125.035 169.679 124.386 168.961 123.202 167.527V169.32C123.202 169.559 123.061 169.679 122.779 169.679H122.61C122.328 169.679 122.187 169.559 122.187 169.32V165.806L122.187 165.806ZM138.172 73.087L162.021 73.0869V92.4481C162.021 98.9018 161.88 105.858 161.599 113.315V113.53H161.852C163.826 110.375 169.182 102.249 177.921 89.1496C182.431 82.5046 184.687 77.4846 184.687 74.0907V73.0868H209.128V73.5887C209.128 80.1859 205.942 87.3802 199.572 95.1733L185.025 113.028L199.318 138.772H212.173V141.855H197.711V142.071C200.023 146.277 201.517 148.811 202.194 149.672H204.815V158.994H208.536V175.774C204.364 175.869 201.292 175.917 199.318 175.917H193.398C191.312 175.917 188.465 175.869 184.856 175.774V164.516H179.528V149.672H176.484L173.27 141.855H197.458V138.772H175.3C175.3 138.533 174.003 135.067 171.41 128.374H171.156C169.803 130.573 167.097 134.039 163.037 138.772H173.27V141.855H162.022V146.875H160.585V170.395H162.022V175.558C162.022 175.797 161.881 175.917 161.599 175.917H138.596C138.314 175.917 138.173 175.797 138.173 175.558V167.455H148.998V164.013H138.173V73.0856L138.172 73.087ZM199.909 133.538H201.178C201.516 133.538 201.911 134.47 202.362 136.334C202.588 136.334 203.01 135.402 203.63 133.538H205.406V137.912C205.406 138.151 205.294 138.27 205.068 138.27H204.223V135.474H204.053C204.053 135.665 203.715 136.597 203.038 138.27H202.362C201.967 138.27 201.573 137.458 201.178 135.832H200.924V137.912C200.924 138.151 200.811 138.27 200.586 138.27H199.909C199.684 138.27 199.571 138.151 199.571 137.912V133.896C199.571 133.657 199.684 133.538 199.909 133.538L199.909 133.538ZM147.983 138.773V141.856H161.853C161.853 141.473 162.191 140.446 162.868 138.773H147.983H147.983ZM179.782 165.233H180.966C181.135 165.233 181.558 165.615 182.234 166.38C182.742 165.615 183.08 165.233 183.249 165.233H184.433V165.376L182.826 167.456C183.108 167.504 183.728 168.245 184.687 169.679H182.995L182.234 168.316C181.389 169.225 180.909 169.679 180.796 169.679H179.528C180.486 168.245 181.107 167.504 181.388 167.456L179.782 165.376V165.233H179.782Z" fill="#FEF2A2"/>
</g>
<defs>
<clipPath id="clip0_9_2">
<rect width="259" height="249" fill="white"/>
</clipPath>
</defs>
</svg>
